<?xml version="1.0" encoding="UTF-8"?>
<svg width="357.27" height="109.12" version="1.1" viewBox="0 0 94.528 28.871" xml:space="preserve" xmlns="http://www.w3.org/2000/svg" xmlns:cc="http://creativecommons.org/ns#" xmlns:dc="http://purl.org/dc/elements/1.1/" xmlns:rdf="http://www.w3.org/1999/02/22-rdf-syntax-ns#"><metadata><rdf:RDF><cc:Work rdf:about=""><dc:format>image/svg+xml</dc:format><dc:type rdf:resource="http://purl.org/dc/dcmitype/StillImage"/></cc:Work></rdf:RDF></metadata><g transform="translate(-146.75 -217.44)"><g transform="translate(-11.629 34.301)"><path transform="matrix(.43446 0 0 .43446 1.5774 165.4)" d="m439.86 83.942v-10.617q0-8.0264 8.0264-8.0264h7.112q7.9756 0 7.9756 8.0264v10.617q0 8.0264-7.9756 8.0264h-7.112q-8.0264 0-8.0264-8.0264zm5.9436 0.508q0 2.3368 2.3368 2.3368h6.5532q2.3876 0 2.3876-2.3368v-11.633q0-2.3876-2.3876-2.3876h-6.5532q-2.3368 0-2.3368 2.3876zm22.86 7.5184v-4.4704l13.513-17.069h-13.005v-5.1308h20.574v4.4704l-13.513 17.018h14.021v5.1816zm27.28-8.0264v-10.617q0-8.0264 8.0264-8.0264h7.112q7.9756 0 7.9756 8.0264v10.617q0 8.0264-7.9756 8.0264h-7.112q-8.0264 0-8.0264-8.0264zm5.9436 0.508q0 2.3368 2.3368 2.3368h6.5532q2.3876 0 2.3876-2.3368v-11.633q0-2.3876-2.3876-2.3876h-6.5532q-2.3368 0-2.3368 2.3876zm24.384 7.5184v-26.67h14.63q7.9756 0 7.9756 8.0264v18.644h-5.8928v-19.152q0-2.3876-2.3876-2.3876h-8.382v21.539zm29.616-8.0264v-10.617q0-8.0264 8.0264-8.0264h6.604q7.9756 0 7.9756 8.0264v7.62h-16.662v3.5052q0 2.3368 2.3368 2.3368h13.31v3.2004l-2.6924 1.9812h-10.871q-8.0264 0-8.0264-8.0264zm5.9436-7.7724h10.77v-3.3528q0-2.3876-2.3876-2.3876h-6.0452q-2.3368 0-2.3368 2.3876z" fill="#4d4d4d" stroke-width=".26458px" style="white-space:pre" aria-label="ozone"/></g><g transform="translate(-11.629 34.301)" style="mix-blend-mode:normal"><path transform="scale(.26458)" d="m612.31 692.16c-7.5285 4.9e-4 -13.698 6.1709-13.697 13.699v81.721c5e-4 7.5275 6.1697 13.697 13.697 13.697h81.721c7.5275-5.1e-4 13.697-6.1697 13.697-13.697v-81.721c5.9e-4 -7.5283-6.1687-13.699-13.697-13.699zm0 7.5586h81.721c3.5162 2.3e-4 6.1389 2.6242 6.1387 6.1406v81.721c-2.4e-4 3.516-2.6226 6.1384-6.1387 6.1387h-81.721c-3.516-2.3e-4 -6.1384-2.6226-6.1387-6.1387v-81.721c-2.7e-4 -3.5164 2.6225-6.1404 6.1387-6.1406zm13.621 33.381a13.62 13.62 0 0 0-13.621 13.619 13.62 13.62 0 0 0 13.621 13.621 13.62 13.62 0 0 1 13.619 13.619 13.62 13.62 0 0 0 13.621 13.621 13.62 13.62 0 0 0 0.0391 0 13.62 13.62 0 0 0 0.0371 0 13.62 13.62 0 0 0 13.621-13.621 13.62 13.62 0 0 1 13.619-13.619 13.62 13.62 0 0 0 13.621-13.621 13.62 13.62 0 0 0-13.621-13.619 13.62 13.62 0 0 0-13.619 13.619 13.62 13.62 0 0 1-13.621 13.621 13.62 13.62 0 0 1-0.0371 0 13.62 13.62 0 0 1-0.0391 0 13.62 13.62 0 0 1-13.621-13.621 13.62 13.62 0 0 0-13.619-13.619z" fill="#abcade" style="paint-order:markers fill stroke"/></g></g></svg>
