<?xml version="1.0" encoding="UTF-8"?>
<svg width="293.57" height="287.68" version="1.1" viewBox="0 0 77.673 76.114" xml:space="preserve" xmlns="http://www.w3.org/2000/svg" xmlns:cc="http://creativecommons.org/ns#" xmlns:dc="http://purl.org/dc/elements/1.1/" xmlns:rdf="http://www.w3.org/1999/02/22-rdf-syntax-ns#"><metadata><rdf:RDF><cc:Work rdf:about=""><dc:format>image/svg+xml</dc:format><dc:type rdf:resource="http://purl.org/dc/dcmitype/StillImage"/></cc:Work></rdf:RDF></metadata><g fill="#4d4d4d"><path d="m70.027 54.693a7.4806 7.4806 0 0 0-5.8995 8.7712 7.4806 7.4806 0 0 0 8.7735 5.9113 7.4806 7.4806 0 0 0 4.7727-3.1625l-2.0674-1.3929a4.9876 4.9876 0 0 1-3.1822 2.1086 4.9876 4.9876 0 0 1-5.8497-3.9414 4.9876 4.9876 0 0 1 3.9413-5.8497 4.9876 4.9876 0 0 1 3.7412 0.75915l1.3929-2.0674a7.4806 7.4806 0 0 0-5.611-1.1386 7.4806 7.4806 0 0 0-0.01178 0.0023z" style="paint-order:markers fill stroke"/><path d="m65.228 61.979 0.47708 2.4477 9.0053-1.7552-0.47708-2.4477-6.0035 1.1702z"/><path d="m40.592 57.889 0.47707 2.4476 2.4477-0.47709-0.47707-2.4476zm-4.4303 3.4041a7.4806 7.4806 0 0 0-5.8995 8.7712 7.4806 7.4806 0 0 0 8.7735 5.9113 7.4806 7.4806 0 0 0 5.9113-8.7736l8.64e-4 -1.68e-4 -1.4311-7.3423-2.4477 0.4771 0.36453 1.8702a7.4806 7.4806 0 0 0-5.2601-0.91606 7.4806 7.4806 0 0 0-0.01178 0.0023zm0.4887 2.4446a4.9876 4.9876 0 0 1 5.8498 3.9413 4.9876 4.9876 0 0 1-3.9414 5.8498 4.9876 4.9876 0 0 1-5.8497-3.9414 4.9876 4.9876 0 0 1 3.9413-5.8497z" style="paint-order:markers fill stroke"/><path d="m56.114 57.403c-1.9219 0.36951-3.674 1.5325-4.7609 3.1602 0.68913 0.46432 1.3783 0.92863 2.0674 1.3929 1.0789-1.645 3.19-2.5135 5.1141-2.104 0.233 0.04659 0.46264 0.10982 0.68662 0.18911-2.2733 3.374-4.5466 6.748-6.8199 10.122 1.8345 1.777 4.6135 2.484 7.075 1.8098 1.7345-0.45463 3.287-1.56 4.2842-3.0502-0.68914-0.46432-1.3783-0.92863-2.0674-1.3929-1.0789 1.645-3.1901 2.5135-5.1142 2.104-0.233-0.04659-0.46264-0.10982-0.68662-0.1891 2.2733-3.374 4.5466-6.748 6.8199-10.122-1.7227-1.6617-4.2548-2.394-6.5983-1.9198z" style="paint-order:markers fill stroke"/><path d="m48.827 74.068 2.4477-0.47709-2.8624-14.685-2.4477 0.47709z"/><path d="m20.197 64.046-1.4573 0.99064 0.99167 1.4588 1.834 0.34985 2.0841 0.39739 3.9243 0.74776 0.46715-2.4495-3.9248-0.74827-2.0836-0.39688z"/><path d="m5.8109 55.599c-2.8942 0.66302-5.1223 2.975-5.6783 5.8917-0.55596 2.9167 0.66545 5.8862 3.1128 7.5674 2.4474 1.6812 5.6575 1.7559 8.1823 0.193l-1.4057-2.0677c-1.6872 0.99878-3.803 0.91642-5.4074-0.21049-1.6044-1.1269-2.3996-3.0893-2.0325-5.0152 0.36711-1.926 1.8285-3.4582 3.7349-3.9159 1.9064-0.45771 3.9042 0.24403 5.1057 1.7934l2.0677-1.4057c-1.7729-2.3821-4.7853-3.4935-7.6796-2.8304z"/><path d="m20.857 59.834 1.4057 2.0677c2.1633-1.2807 4.9416-0.75108 6.4821 1.2356l2.0677-1.4057c-2.322-3.1215-6.6481-3.9461-9.9555-1.8976z"/><path d="m27.344 70.485c-2.1633 1.2806-4.9416 0.75108-6.4821-1.2356l-2.0677 1.4057c2.322 3.1215 6.648 3.9461 9.9555 1.8976z"/></g><path d="m11.781 60.345 2.6288 3.8669-3.8669 2.6288 1.402 2.0624 3.8669-2.6288 2.6288 3.8669 2.0624-1.402-2.6288-3.8669 3.8669-2.6288-1.402-2.0624-3.8669 2.6288-2.6288-3.8669z" fill="#f33c57"/><path d="m37.043 0c2.5306 21.48-18.822 26.082-18.822 40.552h2.4e-4a20.618 12.747 0 0 0 20.618 12.747 20.618 12.747 0 0 0 20.605-12.523l0.0428 2.4e-4c0-13.738-12.492-17.289-16.013-23.974 1.516-4.1288 0.8527-9.2279-6.4323-16.803zm6.4318 16.804c-0.17004 6.1334-1.8807 7.2096-7.2019 13.267 0.4263-4.758 5.3824-8.3144 7.2019-13.267z" fill="#f33c57" fill-rule="evenodd"/><g fill="#fff" fill-rule="evenodd"><path d="m41.423 43.359c6.6732-2.2244 9.582-5.3043 9.582-5.3043l-0.46876 1.0832s0.12099 3.8414-2.3291 5.2934c-2.4501 1.4519-5.4143-1.0587-5.4143-1.0587z"/><path d="m36.256 43.359c-6.6732-2.2244-9.582-5.3043-9.582-5.3043l0.46875 1.0832s-0.12099 3.8414 2.3291 5.2934c2.4501 1.4519 5.4143-1.0587 5.4143-1.0587z"/><path d="m36.155 48.319c2.8333-0.0364 5.5559-1.0097 7.3804-2.2988 0 0-0.78643 3.2062-2.7223 4.0532-1.9358 0.84693-4.6581-1.7544-4.6581-1.7544z"/></g></svg>
