<?xml version="1.0" encoding="UTF-8"?>
<svg width="450.1" height="581.33" version="1.1" viewBox="0 0 119.06 153.78" xml:space="preserve" xmlns="http://www.w3.org/2000/svg"><g transform="translate(-296.5 -470.4)"><path d="m350.8 470.4c7.301 61.97-54.3 75.25-54.3 117h7e-4a59.49 36.78 0 0 0 59.49 36.78 59.49 36.78 0 0 0 59.45-36.13l0.1235 6.9e-4c0-39.64-36.04-49.88-46.2-69.17 4.374-11.91 2.46-26.62-18.56-48.48zm18.56 48.48c-0.4906 17.7-5.426 20.8-20.78 38.28 1.23-13.73 15.53-23.99 20.78-38.28z" fill="#f33c57" fill-rule="evenodd"/><g fill="#fff"><g fill-rule="evenodd"><path d="m363.4 595.5c19.25-6.418 27.65-15.3 27.65-15.3l-1.352 3.125s0.3491 11.08-6.72 15.27c-7.069 4.189-15.62-3.054-15.62-3.054z"/><path d="m348.5 595.5c-19.25-6.418-27.65-15.3-27.65-15.3l1.352 3.125s-0.3491 11.08 6.72 15.27c7.069 4.189 15.62-3.054 15.62-3.054z"/><path d="m348.2 609.8c8.175-0.105 16.03-2.913 21.29-6.632 0 0-2.269 9.251-7.854 11.69-5.585 2.444-13.44-5.062-13.44-5.062z"/></g></g></g></svg>
