<?xml version="1.0" encoding="UTF-8"?>
<svg width="344.7" height="108.96" version="1.1" viewBox="0 0 91.201 28.829" xmlns="http://www.w3.org/2000/svg">
  <g transform="translate(-158.4 -183.16)" style="mix-blend-mode:normal">
    <path d="m161.84 183.69c-1.2481 0.0484-2.4021 0.94199-2.7669 2.1355-0.23124 0.70766-0.11779 1.4614-0.1451 2.1916 2e-3 6.8279-5e-3 13.656 4e-3 20.484 0.0285 1.2991 0.9814 2.505 2.236 2.8394 0.68041 0.1927 1.395 0.0898 2.0918 0.11603 6.8279-2e-3 13.656 5e-3 20.484-4e-3 1.2991-0.0285 2.505-0.98141 2.8394-2.236 0.1927-0.68041 0.0898-1.395 0.11602-2.0918-2e-3 -6.8279 5e-3 -13.656-4e-3 -20.484-0.0281-1.291-0.96872-2.491-2.2127-2.8334-0.68697-0.20142-1.4104-0.0961-2.115-0.12256-6.8279 2e-3 -13.656-5e-3 -20.484 4e-3l-0.0265 7e-4z" fill="#e6e6e6" style="mix-blend-mode:normal;paint-order:markers fill stroke"/>
    <path transform="scale(.26458)" d="m612.31 692.24c-7.5222 5e-4 -13.62 6.0989-13.619 13.621v81.721c5e-4 7.5214 6.0977 13.619 13.619 13.619h81.721c7.5214-5e-4 13.619-6.0977 13.619-13.619v-81.721c5.9e-4 -7.5222-6.0969-13.621-13.619-13.621h-81.721zm0 27.24c27.245 0.0241 54.444 0.0391 81.721 0.0391-0.021 7.5069-6.1122 13.582-13.619 13.582-7.5222-5.9e-4 -13.621 6.0969-13.621 13.619-5.9e-4 7.523 6.0981 13.622 13.621 13.621v13.619h-13.621c-5e-4 -7.5214-6.0977-13.619-13.619-13.619-7.5222-5.8e-4 -13.621 6.0969-13.621 13.619h-13.619v-13.619c7.5222-5e-4 13.62-6.0989 13.619-13.621-5e-4 -7.5214-6.0977-13.619-13.619-13.619h-13.621z" fill="#f33c57" style="paint-order:markers fill stroke"/>
  </g>
  <g transform="translate(-158.4 -183.16)">
    <g transform="matrix(.11805 0 0 .11805 198.46 177.66)" fill="#e6e6e6" stroke-width=".26458px">
      <g transform="matrix(3.6804 0 0 3.6804 -1373 -103.91)" style="shape-inside:url(#rect2311);white-space:pre" aria-label="O">
        <path d="m440.27 83.739v-18.593q0-8.2296 8.2296-8.2296h11.735q8.2296 0 8.2296 8.2296v18.593q0 8.2296-8.2296 8.2296h-11.735q-8.2296 0-8.2296-8.2296zm6.1976 0.4064q0 2.2352 2.2352 2.2352h11.328q2.2352 0 2.2352-2.2352v-19.406q0-2.2352-2.2352-2.2352h-11.328q-2.2352 0-2.2352 2.2352z" fill="#e6e6e6"/>
      </g>
      <g transform="matrix(3.6804 0 0 3.6804 -1669.7 -103.91)" style="shape-inside:url(#rect2313);white-space:pre" aria-label="Fe">
        <path d="m440.78 91.968v-35.052h23.571v5.588h-17.374v10.008h15.85v5.588h-15.85v13.868z"/>
        <path d="m469.27 83.942v-10.617q0-8.0264 8.0264-8.0264h6.604q7.9756 0 7.9756 8.0264v7.62h-16.662v3.5052q0 2.3368 2.3368 2.3368h13.31v3.2004l-2.6924 1.9812h-10.871q-8.0264 0-8.0264-8.0264zm5.9436-7.7724h10.77v-3.3528q0-2.3876-2.3876-2.3876h-6.0452q-2.3368 0-2.3368 2.3876z"/>
      </g>
      <g transform="matrix(2.5795 0 0 2.5795 -971.07 37.67)" style="shape-inside:url(#rect2315);white-space:pre" aria-label="2">
        <path d="m439.3 91.968v-11.125q0-6.7564 5.9436-7.9756l9.7536-1.9304q1.778-0.3556 1.778-2.3368v-3.8608q0-2.2352-2.2352-2.2352h-14.224v-3.2512l2.9972-2.3368h11.379q8.2804 0 8.2804 8.2296v3.302q0 6.7564-5.9436 7.9756l-9.7536 1.9304q-1.778 0.3556-1.778 2.3368v5.6896h17.475v5.588z" fill="#e6e6e6"/>
      </g>
      <g transform="matrix(2.5795 0 0 2.5795 -761.03 37.67)" font-family="'Open Sans'" font-size="50.8px" letter-spacing="0px" word-spacing="0px" style="line-height:105%;shape-inside:url(#rect2317);white-space:pre" aria-label="3">
        <path d="m439.81 89.632v-3.2512h14.732q2.2352 0 2.2352-2.2352v-5.334q0-2.2352-2.2352-2.2352h-10.973v-5.588h10.973q2.2352 0 2.2352-2.2352v-4.0132q0-2.2352-2.2352-2.2352h-14.224v-3.2512l2.9972-2.3368h11.379q8.2804 0 8.2804 8.2296v3.4544q0 2.032-1.27 3.302l-1.778 1.778 1.778 1.778q1.27 1.27 1.27 3.302v4.9784q0 8.2296-8.2804 8.2296h-11.887z"/>
        <text transform="matrix(.86888 0 0 .86888 163.47 3.4304)" stroke-linecap="square" stroke-width="54.992" style="shape-inside:url(#rect1);text-orientation:auto;white-space:pre" xml:space="preserve"/>
      </g>
    </g>
  </g>
</svg>
