<?xml version="1.0" encoding="UTF-8"?>
<svg width="1232" height="844.9" version="1.1" viewBox="0 0 325.9 223.5" xml:space="preserve" xmlns="http://www.w3.org/2000/svg"><g transform="translate(-193 -470.4)"><path d="m350.8 470.4c7.301 61.97-54.3 75.25-54.3 117h7e-4a59.49 36.78 0 0 0 59.49 36.78 59.49 36.78 0 0 0 59.45-36.13l0.1235 6.9e-4c0-39.64-36.04-49.88-46.2-69.17 4.374-11.91 2.46-26.62-18.56-48.48zm18.56 48.48c-0.4906 17.7-5.426 20.8-20.78 38.28 1.23-13.73 15.53-23.99 20.78-38.28z" fill="#f33c57" fill-rule="evenodd"/><g fill="#fff"><g fill-rule="evenodd"><path d="m363.4 595.5c19.25-6.418 27.65-15.3 27.65-15.3l-1.352 3.125s0.3491 11.08-6.72 15.27c-7.069 4.189-15.62-3.054-15.62-3.054z"/><path d="m348.5 595.5c-19.25-6.418-27.65-15.3-27.65-15.3l1.352 3.125s-0.3491 11.08 6.72 15.27c7.069 4.189 15.62-3.054 15.62-3.054z"/><path d="m348.2 609.8c8.175-0.105 16.03-2.913 21.29-6.632 0 0-2.269 9.251-7.854 11.69-5.585 2.444-13.44-5.062-13.44-5.062z"/></g><path d="m197 647.6a3.969 3.969 0 0 0-3.969 3.969v31.82a3.969 3.969 0 0 0 3.969 3.969h31.82a3.969 3.969 0 0 0 3.969-3.969v-31.82a3.969 3.969 0 0 0-3.969-3.969zm3.969 7.938h23.88v23.88h-23.88z" stroke-linejoin="round" style="paint-order:fill markers stroke"/><path d="m244.7 647.6a3.969 3.969 0 0 0-2.807 1.164 3.969 3.969 0 0 0 0 5.612l13.1 13.1-13.1 13.1a3.969 3.969 0 0 0 0 5.614 3.969 3.969 0 0 0 5.613 0l13.1-13.1 13.1 13.1a3.969 3.969 0 0 0 5.613 0 3.969 3.969 0 0 0 0-5.614l-13.1-13.1 13.1-13.1a3.969 3.969 0 0 0 0-5.612 3.969 3.969 0 0 0-2.807-1.164 3.969 3.969 0 0 0-2.807 1.164l-13.1 13.1-13.1-13.1a3.969 3.969 0 0 0-2.807-1.164z" style="paint-order:fill markers stroke"/><path d="m435.5 647.6a3.969 3.969 0 0 0-3.969 3.969v31.82a3.969 3.969 0 0 0 3.969 3.969 3.969 3.969 0 0 0 3.969-3.969v-27.85h23.88v27.85a3.969 3.969 0 0 0 3.969 3.969 3.969 3.969 0 0 0 3.969-3.969v-31.82a3.969 3.969 0 0 0-3.969-3.969z" stroke-linecap="round" stroke-linejoin="round" style="paint-order:fill markers stroke"/><path d="m387.8 647.6a3.969 3.969 0 0 0-2.807 1.164 3.969 3.969 0 0 0 0 5.612l14.75 14.75v20.86a3.969 3.969 0 0 0 3.969 3.969 3.969 3.969 0 0 0 3.969-3.969v-20.86l14.75-14.75a3.969 3.969 0 0 0 0-5.612 3.969 3.969 0 0 0-2.807-1.164 3.969 3.969 0 0 0-2.807 1.164l-13.1 13.1-13.11-13.1a3.969 3.969 0 0 0-2.807-1.164z" style="paint-order:fill markers stroke"/><path d="m292.4 647.6a3.969 3.969 0 0 0-3.969 3.969v31.82a3.969 3.969 0 0 0 3.969 3.969h31.82a3.969 3.969 0 0 0 3.969-3.969 3.969 3.969 0 0 0-3.969-3.969h-27.85v-7.973h18.53a3.969 3.969 0 0 0 3.969-3.969 3.969 3.969 0 0 0-3.969-3.969h-18.53v-7.975h27.85a3.969 3.969 0 0 0 3.969-3.969 3.969 3.969 0 0 0-3.969-3.969z" style="paint-order:fill markers stroke"/><path d="m371.9 641a3.969 3.969 0 0 0-3.969 3.969v2.621h-27.85a3.969 3.969 0 0 0-3.969 3.969v31.82a3.969 3.969 0 0 0 3.969 3.969h31.82a3.969 3.969 0 0 0 3.969-3.969v-38.41a3.969 3.969 0 0 0-3.969-3.969zm-27.85 14.53h23.88v23.88h-23.88z" style="paint-order:fill markers stroke"/><path d="m483.2 647.6a3.969 3.969 0 0 0-3.969 3.969v31.82a3.969 3.969 0 0 0 3.969 3.969h31.82a3.969 3.969 0 0 0 3.969-3.969 3.969 3.969 0 0 0-3.969-3.969h-27.85v-7.973h18.53a3.969 3.969 0 0 0 3.969-3.969 3.969 3.969 0 0 0-3.969-3.969h-18.53v-7.975h27.85a3.969 3.969 0 0 0 3.969-3.969 3.969 3.969 0 0 0-3.969-3.969z" style="paint-order:fill markers stroke"/></g></g></svg>
